<svg xmlns="http://www.w3.org/2000/svg" width="396.851" height="396.851"><radialGradient id="a" cx="199.935" cy="485.016" r="51.749" gradientTransform="matrix(1.7731 -.2107 .0567 .4771 -169.778 168.921)" gradientUnits="userSpaceOnUse"><stop offset="0" stop-color="#afaeaf"/><stop offset=".305" stop-color="#b5b5b5"/><stop offset=".776" stop-color="#c8c8c7"/><stop offset="1" stop-color="#d3d3d3"/></radialGradient><path fill="url(#a)" d="M303.992 347.279c1.621 13.633-38.146 29.566-88.825 35.586-50.687 6.023-93.077-.143-94.701-13.781-1.617-13.641 38.147-29.572 88.832-35.594 50.686-6.023 93.069.153 94.694 13.789z"/><linearGradient id="b" gradientUnits="userSpaceOnUse" x1="106.686" y1="350.728" x2="283.991" y2="43.627"><stop offset="0" stop-color="#9e7b2e"/><stop offset=".464" stop-color="#9c7a2d"/><stop offset=".648" stop-color="#96752c"/><stop offset=".782" stop-color="#8b6c2a"/><stop offset=".891" stop-color="#7d6127"/><stop offset=".985" stop-color="#6b5322"/><stop offset="1" stop-color="#685121"/></linearGradient><path fill="url(#b)" d="M128.487 12.003s-20.175 41.446-25.877 130.916c0 0 .295 129.396 29.533 189.317 0 0 13.155 35.963 16.957 42.98 0 0 79.381 6.289 133.328-27.922 0 0-34.648-36.4-21.93-134.643 12.718-98.24 27.192-160.08 30.262-164.466 0 0-34.939-27.337-97.509-30.262 0 0-19.594-.586-30.41-3.509 0 .002-18.42-2.776-34.354-2.411z"/><path fill="#9F8D5D" d="M227.752 50.086l15.79 14.766s-8.592 29.166-11.881 35.963c0 0 1.646-30.984 1.098-35.502l-5.007-15.227z"/><linearGradient id="c" gradientUnits="userSpaceOnUse" x1="221.315" y1="99.298" x2="254.006" y2="80.424"><stop offset="0" stop-color="#4d3b1a"/><stop offset=".201" stop-color="#48381a"/><stop offset=".492" stop-color="#3a2f1a"/><stop offset=".837" stop-color="#221e15"/><stop offset="1" stop-color="#13120f"/></linearGradient><path fill="url(#c)" d="M243.542 64.853l3.69 3.838s-14.583 41.993-16.558 46.818c0 0 .885-12.707.986-14.693.001-.001 9.069-25.218 11.882-35.963z"/><path fill="#7D6128" d="M131.105 26.943s-24.984 60.506-23.522 103.372c0 0 .438.699 1.315 0 0 0 4.833-63.857 23.541-100.551l-1.334-2.821z"/><path fill="#765B24" d="M138.237 39.787s-7.372 22.434-11.302 61.028l-1.449.972s5.01-55.224 11.609-63.769c0 .001.692 1.094 1.142 1.769z"/><path fill="#8B6B2B" d="M141.498 60.175s.568 16.371-.667 22.659c0 0-1.765 12.864-2.595 14.034-.832 1.17 0 0 0 0l.991.021s1.832-8.061 2.854-16.467l.274-1.639V60.175h-.857z"/><path fill="#7B5F27" d="M158.105 62.529s-2.697-2.291-3.53-3.099c-.833-.809 0 0 0 0l-.033.745-3.908 36.693-.244 2.339s2.654 1.432 3.114 1.735c.462.306 0 0 0 0s3.079-36.24 4.601-38.413"/><path fill="#7D6128" d="M179.065 66.612s-3.172-.174-4.389-.254c0 0-11.541 28.992-11.468 44.736 0 0 2.077 3.73 2.601 5.012.001 0 9.451-45.542 13.256-49.494z"/><path fill="#7D6128" d="M186.16 83.054s-11.026 23.73-11.616 96.255c0 0 2.635 1.441 3.093 1.72 0 0 5.671-87.083 8.742-96.148l.438-1.828h-.657z"/><path fill="#745B24" d="M203.264 67.672l-3.51-.136s-4.551 73.325-2.605 107.028h1.291c-.001 0 4.895-97.493 4.824-106.892"/><path fill="#6A5322" d="M217.371 68.183l4.313.147s1.289 28.538-3.413 44.328c0 0-2.36 8.625-2.508 15.204s-.442 17.834-3.217 26.46c0 0-3.034 13.513-3.05 36.289-.019 22.775 0 0 0 0l-.799.395s-.099-32.614 2.68-40.79c0 0 .88-3.791 1.462-9.784 0 0 .474-22.222 2.43-27.191.001.001 3.708-40.631 2.102-45.058-1.607-4.427 0 0 0 0"/><path fill="#7D6128" d="M267.45 60.175s3.392 33.162-2.565 59.206c0 0-9.866 56.812-13.74 72.22 0 0-2.266 11.643-2.084 16.713l2.281 1.557s5.62-32.524 8.266-39.979c0 0 6.853-38.157 8.805-47.805 0 0 6.169-40.932 2.526-63.556-.001 0-3.015 1.425-3.489 1.644z"/><path fill="none" stroke="#614B1D" stroke-miterlimit="10" d="M218.426 151.478s3.259 36.961 35.056 29.552"/><path fill="#7D6128" d="M145.956 169.156s-.275 6.955 0 6.868c.276-.085 0 0 0 0s-2.234.791-2.291.813c-.057.022 0 0 0 0s-.223-6.545-.025-7.21c.197-.667 0 0 0 0s1.535-.257 2.316-.471"/><path fill="#7E6127" d="M135.922 169.517s-.185 10.905 0 11.698c.185.793 0 0 0 0s-1.868 1.375-2.259 1.683c-.393.31 0 0 0 0s-.382-11.223-.175-13.952c.208-2.728 0 0 0 0s1.889.477 2.434.571"/><path fill="#7F6127" d="M121.789 161.787s2.138 24.381 3.924 28.358c1.787 3.978 0 0 0 0s-1.276 1.372-1.566 1.697c-.289.323 0 0 0 0s-3.492-22.542-3.469-31.237c.025-8.695 0 0 0 0l1.111 1.182"/><path fill="#7D6128" d="M113.295 147.764s2.206 59.195 7.382 72.678c5.178 13.482 0 0 0 0l-2.541 4.227s-9.167-26.455-7.083-88.239c2.083-61.782 0 0 0 0s1.19 8.577 2.242 11.334"/><path fill="#7D6128" d="M122.979 277.699s4.485 22.381 11.209 31.445c0 0 33.04 63.504 37.718 66.43h-4.057s-40.448-64.156-46.235-97.619c-5.787-33.461-.937.176-.937.176l2.302-.432"/><path fill="#705823" d="M141.079 271.162s5.242 32.283 11.969 46.9c0 0-10.864-11.078-18.882-43.768-8.017-32.691 0 0 0 0l6.913-3.132"/><path fill="#7B6027" d="M153.048 324.709s21.051 36.621 24.341 39.252c0 0 7.156 9.684 7.785 11 0 0-3.348.328-4.651.279 0 0-5.438-9.523-8.617-15.885 0 0-17.762-31.906-18.858-33.33l-.439-.877s.054-.494.439-.439z"/><path fill="#7D6128" d="M164.776 253.773s-.473 39.871 12.1 62.387c0 0 14.327 32.252 14.035 33.963 0 0 1.317-.488 1.317-2.971 0 0-4.825-18.133-11.257-30.703 0 0-14.62-38.012-9.065-66.078 0 0-6.078-5.025-7.13 3.402"/><path fill="#7F6227" d="M186.379 249.582s5.701 46.117 15.938 68.48c0 0 12.662 36.836 22.605 51.457l-1.85.387s-24.294-41.705-25.924-56.82c0 0-11.373-44.652-12.277-61.688s1.31-1.576 1.508-1.816"/><path fill="#7D6128" d="M194.492 243.826s1.097 36.238 9.429 53.297c0 0 7.457 18.375 9.211 33.508 0 0 .586.146 1.025-.73 0 0-2.717-20.541-9.218-39.4 0 0-8.764-29.75-9.642-43.053l-.294-3.621h-.511z"/><path fill="#7D6128" d="M214.157 255.504s-.147 29.953 8.185 49.688c0 0 8.114 28.289 8.992 34.867 0 0 3.792 15.557 10.37 25.207l3.465-1.064s-13.254-26.555-15.189-36.641c0 0-6.103-22.588-7.419-26.096 0 0-7.791-26.391-6.746-45.32 1.046-18.932 0 0 0 0l-1.658-.641"/><path fill="#7D6128" d="M229.979 260.719s6.253 7.969 6.544 18.4c0 0 3.216 13.006 6.433 18.004 0 0 4.676 9.969 4.676 18.738 0 0-.878.289-1.169 0 0 0-6.578-17.828-9.209-21.631 0 0-5.555-11.549-5.555-22.365 0 0-.661-9.426-1.72-11.146z"/><path fill="#7D6128" d="M233.964 304.754s15.876 41.719 24.048 54.877l-3.194 1.24s-2.066-5.502-2.505-9.334c0 0-13.086-27.055-18.349-44.924l-.438-1.584.438-.275z"/><path fill="#7D6128" d="M247.632 252.471s-2.703 27.504 5.41 40.881c0 0 10.527 27.191 11.843 34.209 0 0 .438.582 1.315 0 0 0-7.456-29.166-10.744-34.209 0 0-6.012-18.488-6.405-40.822-.394-22.332 0 0 0 0l-1.419-.059"/><path fill="#856729" d="M253.772 339.402s5.459 5.299 9.845 17.875l-2.286.99s-4.784-14.479-7.559-17.549c0 .001-1.024-1.169 0-1.316z"/><path opacity=".5" fill="#694F22" d="M198.439 245.766s-6.359 21.49-28.727 25.656c0 0 10.307-5.262 6.141-18.42 0 0-9.444 32.352-58.155 35.912l-2.204-10.064.786-2.969s45.163-23.9 48.494-28.434c3.33-4.531 29.499-12.869 29.718-14.695.221-1.826 25.582 12.064 35.487 12.795s27.72 6.852 27.72 6.852v9.889s-19.644.076-22.933-2.264c0 0 2.127 4.619 7.384 7.381 0-.001-31.066 5.919-43.711-21.639z"/><g><linearGradient id="d" gradientUnits="userSpaceOnUse" x1="186.379" y1="174.564" x2="186.379" y2="279.12"><stop offset="0" stop-color="#352a15"/><stop offset=".173" stop-color="#241e13"/><stop offset=".377" stop-color="#15140f"/><stop offset=".62" stop-color="#0a0c0b"/><stop offset="1" stop-color="#070909"/></linearGradient><path fill="url(#d)" d="M195.15 203.881s19.078-36.182 64.909-1.096c0 0-13.597-1.754-15.35 2.191 0 0 15.056 13.084 31.43 14.693 0 0-15.936 5.701-4.094 8.918 0 0 22.518 2.488 31.872-8.623 0 0-11.843 42.686-72.366 30.406 0 0-3.943 1.02 5.411 7.16 0 0-29.678 7.164-41.813-21.928 0 0-13.012 28.799-33.771 28.799 0 0 7.895-6.145 6.872-13.014 0 0-.585-.576-1.316.082 0 0-44.734 52.26-98.095 13.082 0 0 43.418.439 41.665-16.227 0 0-7.018-1.025-10.525-.807 0 0 18.419-18.783 24.854-35.744 0 0-7.53-.439-18.056 8.551 0 0 9.285-26.385 31.505-40.712 22.22-14.326 53.506 4.386 56.868 24.269z"/><linearGradient id="e" gradientUnits="userSpaceOnUse" x1="268.611" y1="253.05" x2="300.127" y2="271.245"><stop offset="0" stop-color="#8e6f2b"/><stop offset=".56" stop-color="#7b6026"/><stop offset="1" stop-color="#705723"/></linearGradient><path fill="url(#e)" d="M258.247 271s.702 19.371 3.341 26.123c0 0 37.506-14.004 43.646-36.52 0 0 3.861-19.961-3.04-36.293 0 0-3.043 6.07-5.734 9.17 0 0 4.861 23.688-14.178 32.68-.001 0-9.729 5.625-24.035 4.84z"/><linearGradient id="f" gradientUnits="userSpaceOnUse" x1="103.595" y1="303.746" x2="124.636" y2="303.746"><stop offset="0" stop-color="#715823"/><stop offset=".24" stop-color="#775c25"/><stop offset=".525" stop-color="#836528"/></linearGradient><path fill="url(#f)" d="M124.636 313.639s-4.775-13.857-9.142-34.789c0 0-.75.129-2.65.193 0 0-8.624 28.342-9.209 43.691 0 0-.532 2.688 2.264 2.414 0 0 4.934-1.92 6.359 2.355 0 0 .439 1.865 2.413.822.001.001 4.907-14.903 9.965-14.686z"/><linearGradient id="g" gradientUnits="userSpaceOnUse" x1="127.122" y1="40.37" x2="284.4" y2="40.37"><stop offset=".072" stop-color="#fff5d0"/><stop offset=".228" stop-color="#fff4cf"/><stop offset=".306" stop-color="#fbefc6"/><stop offset=".441" stop-color="#f4e3ae"/><stop offset=".615" stop-color="#ead189"/><stop offset=".616" stop-color="#ead089"/><stop offset="1" stop-color="#ead089"/></linearGradient><path fill="url(#g)" d="M127.122 15.293s51.362 4.459 65.616 5.775c0 0 38.286 3.925 59.723 12.718 0 0 17.205 6.538 31.939 13.304 0 0-31.354 17.469-40.858 17.762l-15.79-14.766 5.007 15.227s-33.367.855-53.323-1.776c0 0-17.397 2.23-28.874-14.326-11.695-16.87-22.175-31.579-23.44-33.918z"/><path fill="#423419" d="M133.432 15.841s4.813 27.301 31.567 44.516c0 0 3.399 2.303 8.223 2.522 0 0 52.044 2.703 58.77 2.412l.768.023v3.377s-53.397-1.646-63.266-2.742c0 0-8.406.22-13.815-5.482 0 0-22.855-20.503-28.556-45.173l6.309.547z"/><path fill="#423419" d="M290.76 48.187s-1.463-1.067-2.676-1.904c-.863-.596-2.1.518-3.684.808 0 0-34.134 18.639-40.858 17.762l3.69 3.838c0-.001 20.136-7.201 43.528-20.504z"/><path fill="#664E20" d="M257.949 64.405s-3.444 30.854-3.444 36.41h1.025s3.789-36 4.817-37.443l-2.398 1.033z"/><path fill="none" stroke="#3F3219" stroke-miterlimit="10" d="M168.384 139.227s-4.624 34.831-33.978 32.858c0 0-16.959.657-25.875-24.561"/></g><g><ellipse fill="#5E491D" cx="140.109" cy="133.381" rx="29.166" ry="36.511"/><path fill="#5E491D" d="M259.266 147.347c2.063 14.614-5.363 27.747-16.587 29.329-11.229 1.588-21.997-8.977-24.064-23.587-2.063-14.614 5.362-27.746 16.591-29.33 11.225-1.587 21.993 8.978 24.06 23.588z"/><linearGradient id="h" gradientUnits="userSpaceOnUse" x1="128.166" y1="153.643" x2="156.585" y2="104.418"><stop offset="0" stop-color="#fff"/><stop offset="1" stop-color="#d1d2d2"/></linearGradient><ellipse fill="url(#h)" cx="142.375" cy="129.031" rx="23.683" ry="29.823"/><path fill="#070909" d="M152.843 136.29c-3.642 7.331-11.974 10.601-18.611 7.303-6.639-3.3-9.058-11.92-5.413-19.25 3.645-7.334 11.977-10.604 18.616-7.302 6.637 3.297 9.056 11.915 5.408 19.249z"/><linearGradient id="i" gradientUnits="userSpaceOnUse" x1="237.068" y1="124.894" x2="237.068" y2="167.229"><stop offset="0" stop-color="#d1d2d2"/><stop offset=".346" stop-color="#e6e5e5"/><stop offset=".715" stop-color="#f6f6f6"/><stop offset="1" stop-color="#fff"/></linearGradient><path fill="url(#i)" d="M253.07 143.174c2.082 11.582-3.393 22.263-12.226 23.855s-17.69-6.506-19.777-18.082c-2.086-11.582 3.389-22.261 12.223-23.854 8.84-1.593 17.69 6.506 19.78 18.081z"/><ellipse fill="#070909" cx="237.836" cy="145.766" rx="8.735" ry="9.339"/><path fill="#675021" d="M301.725 240.504s7.456 32.016-32.674 42.76c0 0-1.316 1.26 0 1.947 0 0 27.631-3.264 33.223-26.727 0 0 1.572-7.967 0-17.98-.001 0-.639-.451-.549 0z"/><path fill="#765B24" d="M258.819 278c38.157 0 40-26.463 40-26.463-.383-.748-.891 0-.891 0-2.776 25.293-39.233 25.141-39.233 25.141l.124 1.322z"/><path fill="#6A5322" d="M121.346 303.037s-8.794 4.793-7.333 15.025h1.608s3.538-10.906 7.106-10.352c.001.001-1.216-4.093-1.381-4.673z"/><path fill="#6A5322" d="M118.775 293.379s-8.854 10.357-10.024 24.684h-1.461s-.378-18.531 10.409-29.148c-.001-.001.853 3.567 1.076 4.464z"/><path fill="#8F7846" d="M112.677 328.248s-.747-4.307-5.389-3.447c0 0-1.681.361-1.895.35-.215-.01 1.253-.002 1.895.217 0 0 3.656.439 4.368 2.137l1.021.743z"/><path fill="#5E491D" d="M203.335 35.029s3.438.146.878 1.9c0 0-3.947 2.779 2.56 4.898 0 0 6.213 1.608 7.018-3.399 0 0 .919-8.371-10.762-11.586 0 0-12.794-1.827-18.157 4.239 0 0-5.728 5.559 1.801 13.524 0 0 6.357 7.6 18.857 6.212 0 0 13.817-.804 29.46-9.574 0 0 5.481-3.29 1.097-7.895 0 0-4.456-5.7-5.771-6.286l2.279.67s6.567 6.564 6.712 8.173c0 0 1.969 4.461-6.583 8.481 0 0-12.426 6.579-25.875 7.894 0 0-10.743 1.826-18.2-4.095 0 0-5.778-4.386-7.313-10.161-3.786-14.248 26.973-16.373 31.729-6.36 0 0 4.458 4.9 2.85 9.139 0 0-2.777 4.166-10.015 2.412 0 0-5.363-1.633-6.248-5.595-.445-1.988 2.056-2.317 3.683-2.591z"/><linearGradient id="j" gradientUnits="userSpaceOnUse" x1="154.692" y1="40.407" x2="231.453" y2="40.407"><stop offset="0" stop-color="#5e491d"/><stop offset=".293" stop-color="#5e491d"/><stop offset=".52" stop-color="#614b1e"/><stop offset=".641" stop-color="#685223"/><stop offset=".736" stop-color="#755e2c"/><stop offset=".818" stop-color="#8a713b"/><stop offset=".88" stop-color="#a1884e"/></linearGradient><path fill="url(#j)" d="M174.311 19.42s-20.278 6.289-17.536 17.035c0 0 3.618 12.06 28.836 18.639 0 0 12.279 4.276 30.699 5.592 0 0 12.666.493 14.665-.795l.478 1.449s-22.269 1.867-39.921-3.505c0 0-14.803-2.741-25.986-9.869 0 0-9.868-4.933-10.854-14.144 0 0 .229-9.181 16.678-14.664l2.941.262z"/><linearGradient id="k" gradientUnits="userSpaceOnUse" x1="237.044" y1="48.696" x2="265.038" y2="48.696"><stop offset=".105" stop-color="#c1a769"/><stop offset=".181" stop-color="#c1a769"/><stop offset=".24" stop-color="#b69d60"/><stop offset=".579" stop-color="#836b36"/><stop offset=".844" stop-color="#685223"/><stop offset="1" stop-color="#5e491d"/></linearGradient><path fill="url(#k)" d="M263.459 37.77l1.579.996s-15.13 18.876-27.089 20.856l-.905-.846s14.111-4.078 26.415-21.006z"/></g><g fill="#FFF"><path opacity=".5" d="M143.205 115.496c-2.983 4.948-3.652 10.013-1.485 11.318 2.16 1.303 6.329-1.646 9.318-6.593 2.987-4.95 3.649-10.015 1.487-11.319-2.164-1.304-6.331 1.643-9.32 6.594z"/><path opacity=".5" d="M241.208 136.245c-2.059 3.407-2.516 6.896-1.024 7.793 1.486.898 4.357-1.13 6.417-4.538 2.057-3.408 2.509-6.897 1.021-7.794-1.488-.899-4.358 1.129-6.414 4.539z"/></g></svg>